<svg width="140" height="19" viewBox="0 0 140 19" xmlns="http://www.w3.org/2000/svg"><title>logo</title><path d="M.102 7.245C.102 6.24.055 4.905 0 3.897h3.746c.051.735.102 1.442.102 2.179 1.567-1.88 3.13-2.698 5.36-2.698 2.463 0 4.44 1.061 5.49 3.023 1.41-2.289 3.566-3.023 5.67-3.023 2.435 0 6.103 1.061 6.103 6.184v8.009h-3.898v-7.245c0-3.38-1.461-4.17-3.335-4.17-2.026 0-4 1.499-4 4.822v6.593h-3.9v-7.245c0-3.38-1.462-4.17-3.335-4.17-2.026 0-4 1.499-4 4.822v6.593h-3.9V7.245zm30.627 0c0-1.006-.052-2.34-.103-3.348h3.746c.052.735.1 1.442.1 2.179 1.566-1.88 3.13-2.698 5.362-2.698 2.462 0 4.436 1.061 5.49 3.023 1.41-2.289 3.564-3.023 5.668-3.023 2.436 0 6.103 1.061 6.103 6.184v8.009h-3.896v-7.245c0-3.38-1.465-4.17-3.338-4.17-2.024 0-4 1.499-4 4.822v6.593h-3.898v-7.245c0-3.38-1.461-4.17-3.334-4.17-2.027 0-4.002 1.499-4.002 4.822v6.593H30.73V7.245zm45.131 7.737c0 .899.023 1.662.101 2.589H72.37a15.653 15.653 0 0 1-.101-1.88c-1.617 1.716-3.615 2.397-6.104 2.397-4.516 0-6.079-2.236-6.079-4.197 0-4.275 3.847-5.01 8.771-5.01h3.103c0-2.425-1.613-3.051-3.564-3.051-1.899 0-2.974.844-3.13 1.907h-4.052c.386-3.514 3.95-4.36 7.284-4.36 3.62 0 7.363 1.093 7.363 5.886v5.72zm-7.107-3.648c-2.95 0-4.615.652-4.615 2.286 0 .928.718 2.18 2.95 2.18 1.923 0 4.82-1.2 4.871-4.466h-3.206zm11.021-4.006c0-1.308-.05-2.505-.103-3.431h3.747c.047.843.102 1.661.102 2.504h.05c.386-.924 1.256-2.777 4.257-2.777.821 0 1.591.081 2.513.273V7a5.858 5.858 0 0 0-.818-.11 10.368 10.368 0 0 0-1.003-.054c-3.155 0-4.846 1.443-4.846 5.202v5.532h-3.9V7.328zM98.388 0v3.897h4.587v3.107h-4.587v5.88c0 1.5.587 2.32 2.076 2.32.846 0 1.87-.085 2.41-.248v2.615c-1.051.136-2.231.246-3.307.246-3.9 0-5.08-1.336-5.08-4.551V7.004h-2.569V3.897h2.569V.98l3.9-.981zm22.664 14.982c0 .899.025 1.662.102 2.589h-3.592a15.217 15.217 0 0 1-.102-1.88c-1.618 1.716-3.616 2.397-6.103 2.397-4.515 0-6.078-2.236-6.078-4.197 0-4.275 3.847-5.01 8.77-5.01h3.103c0-2.425-1.616-3.051-3.564-3.051-1.899 0-2.976.844-3.13 1.907h-4.052c.385-3.514 3.948-4.36 7.285-4.36 3.616 0 7.361 1.093 7.361 5.886v5.72zm-7.107-3.648c-2.95 0-4.614.652-4.614 2.286 0 .928.717 2.18 2.948 2.18 1.923 0 4.823-1.2 4.873-4.466h-3.207zm10.763-4.198c0-1.198-.049-2.368-.1-3.239h3.743c.053.762.105 1.498.105 2.258h.05c1.308-1.932 3.078-2.777 5.44-2.777 2.307 0 5.898 1.336 5.898 5.777v8.416h-3.9v-7.246c0-3.38-1.461-4.17-3.334-4.17-2.025 0-4 1.5-4 4.823v6.593h-3.902V7.136z" fill="#806C5C" fill-rule="evenodd"/></svg>